<?xml version="1.0" standalone="no"?>
<!DOCTYPE svg PUBLIC "-//W3C//DTD SVG 20010904//EN"
 "http://www.w3.org/TR/2001/REC-SVG-20010904/DTD/svg10.dtd">
<svg version="1.0" xmlns="http://www.w3.org/2000/svg"
 width="400.000000pt" height="289.000000pt" viewBox="0 0 400.000000 289.000000"
 preserveAspectRatio="xMidYMid meet">
<metadata>
Created by potrace 1.16, written by Peter Selinger 2001-2019
</metadata>
<g transform="translate(0.000000,289.000000) scale(0.100000,-0.100000)"
fill="#000000" stroke="none">
<path d="M1481 2653 c-18 -21 -53 -67 -79 -103 -25 -36 -49 -67 -53 -70 -16
-12 -158 -246 -227 -375 -66 -121 -102 -195 -192 -390 -63 -135 -120 -315
-127 -397 -6 -72 11 -118 43 -118 20 0 89 71 161 165 98 128 167 213 307 378
202 238 379 408 472 452 29 14 55 25 58 25 9 0 -30 -93 -88 -215 -56 -116
-100 -221 -111 -268 -4 -15 -11 -30 -16 -33 -5 -3 -9 -31 -9 -62 0 -53 2 -59
29 -75 16 -9 35 -17 43 -17 18 0 113 64 169 114 148 133 378 306 406 306 7 0
13 -11 13 -25 0 -23 -40 -135 -77 -214 -10 -23 -14 -52 -11 -92 4 -50 9 -63
36 -89 42 -40 71 -50 144 -50 54 0 75 7 187 61 69 34 140 72 158 85 83 62 191
129 185 116 -3 -8 -20 -37 -39 -64 -56 -83 -42 -168 27 -168 51 0 80 36 92
116 10 63 15 73 43 93 45 31 89 43 175 50 l75 6 3 38 3 37 -70 0 c-41 0 -95
-8 -133 -20 -34 -11 -66 -20 -70 -20 -13 0 -9 21 7 36 31 32 12 84 -30 84 -22
0 -55 -28 -55 -46 0 -5 -15 -19 -33 -31 -18 -13 -42 -31 -53 -41 -62 -58 -309
-201 -399 -232 -106 -36 -175 -18 -175 45 0 37 36 139 80 225 39 75 60 131 60
156 0 25 -39 54 -73 54 -73 0 -224 -96 -452 -289 -96 -81 -160 -131 -169 -131
-20 0 21 128 69 220 62 118 155 344 155 377 0 26 -35 53 -67 53 -75 0 -202
-78 -333 -205 -128 -123 -337 -359 -401 -452 -24 -35 -100 -123 -149 -173 -42
-42 -45 -44 -48 -22 -2 13 6 56 18 95 23 75 97 265 111 282 4 6 36 67 69 135
34 69 65 127 69 130 4 3 27 41 51 85 42 79 160 261 207 320 13 17 38 47 56 69
45 54 50 64 43 92 -10 37 -46 31 -85 -13z"/>
<path d="M2351 2362 c-45 -22 -58 -56 -31 -80 11 -9 29 -25 40 -34 11 -10 39
-21 62 -24 24 -4 46 -12 50 -17 9 -15 74 21 89 50 21 39 -9 87 -67 107 -61 21
-101 20 -143 -2z"/>
<path d="M1748 1223 c-64 -17 27 -22 372 -23 342 0 390 1 390 15 0 13 -46 15
-372 14 -205 -1 -381 -3 -390 -6z"/>
<path d="M864 974 c-36 -18 -54 -51 -54 -100 0 -50 45 -91 108 -100 75 -11
112 -29 112 -57 0 -13 -10 -33 -23 -45 -31 -30 -86 -28 -149 3 -27 14 -52 25
-54 25 -10 0 -3 -59 9 -68 22 -19 116 -34 163 -27 79 11 134 82 112 145 -11
34 -63 67 -118 75 -63 9 -98 24 -105 45 -9 28 5 50 43 66 32 13 41 13 86 -2
28 -9 56 -21 62 -25 15 -12 24 -1 24 28 0 18 -9 28 -35 39 -45 18 -142 18
-181 -2z"/>
<path d="M260 795 c0 -178 1 -185 20 -185 19 0 20 7 20 158 l1 157 21 -50 c12
-27 25 -52 29 -55 3 -3 17 -29 29 -57 14 -33 29 -53 39 -53 11 0 32 33 63 98
l47 97 1 -147 0 -148 30 0 30 0 0 185 0 185 -38 0 c-41 0 -41 0 -101 -128
l-29 -63 -48 95 c-45 93 -48 96 -80 96 l-34 0 0 -185z"/>
<path d="M1480 795 l0 -185 25 0 24 0 3 157 3 158 47 -90 c125 -239 116 -225
148 -225 l30 0 0 185 c0 178 -1 185 -20 185 -19 0 -20 -7 -21 -147 l0 -148
-37 71 c-20 39 -55 105 -77 147 l-39 77 -43 0 -43 0 0 -185z"/>
<path d="M3020 795 l0 -186 28 3 c27 3 27 4 27 71 l-1 67 49 0 c89 0 137 42
137 122 0 35 -6 54 -24 75 -23 26 -29 28 -120 31 l-96 4 0 -187z m162 118 c18
-16 23 -48 12 -78 -9 -22 -57 -45 -94 -45 l-30 0 0 70 0 70 47 0 c29 0 53 -6
65 -17z"/>
<path d="M1900 878 c-46 -31 -60 -61 -60 -128 0 -115 77 -169 200 -140 48 11
50 13 50 46 l0 34 -35 -20 c-53 -30 -105 -26 -138 8 -51 53 -40 62 73 62 l100
0 0 45 c0 65 -38 106 -106 112 -40 4 -55 0 -84 -19z"/>
<path d="M3355 888 c-38 -14 -54 -35 -55 -73 0 -49 23 -72 88 -85 66 -13 87
-32 69 -61 -16 -26 -82 -25 -124 1 l-33 20 0 -35 c0 -31 3 -35 38 -44 51 -15
86 -14 127 3 38 16 55 42 55 85 0 37 -26 56 -101 76 -63 17 -78 29 -63 53 15
23 84 27 123 7 l31 -16 0 30 c0 26 -5 31 -37 40 -47 13 -79 13 -118 -1z"/>
<path d="M1160 750 l0 -140 30 0 30 0 0 140 0 140 -30 0 -30 0 0 -140z"/>
<path d="M2150 790 c0 -65 5 -113 15 -135 22 -53 82 -70 140 -39 19 10 31 11
33 5 2 -6 15 -11 28 -11 l24 0 0 140 0 140 -25 0 c-25 0 -25 0 -25 -99 0 -99
0 -100 -29 -120 -74 -53 -111 -11 -111 128 0 90 0 91 -25 91 l-25 0 0 -100z"/>
<path d="M2470 750 l0 -140 30 0 30 0 0 99 c0 92 2 101 22 115 12 9 39 16 60
16 34 0 38 3 38 25 0 21 -5 25 -30 25 -17 0 -44 -7 -60 -15 -27 -14 -30 -14
-30 0 0 10 -10 15 -30 15 l-30 0 0 -140z"/>
<path d="M3553 878 c3 -7 17 -42 32 -78 15 -36 38 -90 52 -120 l25 -55 -26
-51 c-33 -64 -32 -70 1 -68 25 1 31 10 80 130 29 71 64 152 78 181 32 65 31
73 -3 73 -25 0 -30 -6 -47 -52 -10 -29 -27 -73 -38 -98 l-20 -44 -19 49 c-11
28 -23 54 -27 60 -5 5 -14 27 -20 48 -11 32 -17 37 -43 37 -20 0 -28 -4 -25
-12z"/>
</g>
</svg>
